<svg width="78" height="86" viewBox="0 0 78 86" fill="none" xmlns="http://www.w3.org/2000/svg">
<g filter="url(#filter0_d_16_206)">
<path d="M64.0427 45.8719L42.8957 58.0804L29.4064 65.869L29.1882 65.995L21.7494 70.2897C16.6236 73.2495 10.215 69.5501 10.215 63.6299V14.7949C10.215 8.87467 16.6229 5.176 21.7494 8.13508L29.994 12.8949L31.0622 13.5114L42.8957 20.3436L47.3719 22.9276L47.8314 23.1936L64.042 32.5522C69.1684 35.512 69.1684 42.9121 64.0427 45.8719Z" fill="#681D29"/>
<path d="M33.4386 48.1961C32.4703 48.3953 30.8799 48.517 28.6703 47.8288C27.9814 45.6192 28.1031 44.0281 28.303 43.0605C29.2023 38.7032 33.9382 36.0488 40.2237 36.2761C40.4503 42.5609 37.7959 47.2975 33.4386 48.1961Z" fill="#F7DAAB"/>
<path d="M37.7495 52.7147C37.1168 52.6774 36.1218 52.4937 34.9248 51.7316C34.9839 50.3143 35.4019 49.3925 35.7327 48.8521C37.2231 46.4193 40.6818 45.6101 44.4607 46.7536C43.2398 50.5079 40.5981 52.8829 37.7495 52.7147Z" fill="#2F050F"/>
<path d="M50.2346 49.8323C49.6829 49.7585 48.8082 49.5227 47.7231 48.724C47.6879 47.3771 47.9954 46.5249 48.2495 46.0302C49.3951 43.803 52.3485 43.2422 55.6975 44.5616C54.8657 48.0632 52.7173 50.1652 50.2346 49.8323Z" fill="#D86B79"/>
<path d="M62.8309 46.4932C62.1828 46.9246 61.0463 47.4847 59.1695 47.6466C57.8895 46.2638 57.4257 45.0844 57.2364 44.33C56.3849 40.9318 58.9704 37.6174 63.707 35.9116C66.0644 40.3597 65.747 44.5517 62.8309 46.4932Z" fill="#2F050F"/>
<path d="M50.9368 41.5384C50.3711 41.6651 49.4379 41.753 48.1284 41.3702C47.6899 40.0789 47.7364 39.143 47.8391 38.5716C48.3008 36.0024 51.0438 34.3951 54.7411 34.4655C54.9712 38.1564 53.4835 40.9663 50.9368 41.5384Z" fill="#D86B79"/>
<path d="M46.8111 35.0602C46.3635 35.4318 45.5705 35.9363 44.2292 36.1918C43.2539 35.2368 42.8725 34.3776 42.7057 33.8203C41.9555 31.3109 43.6761 28.6213 47.0074 26.9965C48.8814 30.1934 48.8251 33.3861 46.8111 35.0602Z" fill="#D86B79"/>
<path d="M39.0605 31.6711C38.6883 32.094 38 32.6971 36.7277 33.1559C35.5955 32.4163 35.0656 31.6704 34.8003 31.1736C33.6082 28.9358 34.8116 26.1252 37.791 24.0542C40.2132 26.7564 40.736 29.7683 39.0605 31.6711Z" fill="#D86B79"/>
<path d="M28.5268 30.8527C27.9878 30.9892 27.1025 31.099 25.8696 30.7731C25.4812 29.5593 25.5459 28.6691 25.6543 28.1237C26.1455 25.6699 28.778 24.0654 32.2804 24.0267C32.4204 27.5255 30.9518 30.2369 28.5268 30.8527Z" fill="#D86B79"/>
<path d="M26.1159 21.34C25.5748 21.0761 24.7683 20.5512 23.9935 19.4407C24.5558 18.2092 25.2546 17.547 25.7394 17.1903C27.9223 15.583 31.2473 16.1298 34.148 18.5189C31.7244 21.3914 28.5528 22.5279 26.1159 21.34Z" fill="#D86B79"/>
<path d="M44.5494 55.3028C44.1715 54.8426 43.6599 54.0284 43.4087 52.6611C44.3967 51.683 45.2812 51.3072 45.8548 51.1461C48.4367 50.4191 51.1839 52.2079 52.825 55.6188C49.5288 57.4787 46.2517 57.3752 44.5494 55.3028Z" fill="#D86B79"/>
<path d="M36.9874 56.6322C37.0149 56.0306 37.1739 55.0862 37.872 53.9561C39.1978 54.0292 40.064 54.4388 40.5728 54.7604C42.8648 56.2086 43.6635 59.5097 42.6403 63.0915C39.1168 61.8833 36.865 59.3408 36.9874 56.6322Z" fill="#D86B79"/>
<path d="M30.8025 54.0672C30.9974 53.5689 31.407 52.816 32.3457 52.0398C33.5005 52.4275 34.1529 52.9842 34.5131 53.3796C36.1352 55.1593 35.9065 58.1261 33.9833 60.879C31.2015 58.9973 29.9257 56.3092 30.8025 54.0672Z" fill="#D86B79"/>
<path d="M22.5199 44.6734C22.192 45.1893 21.5593 45.95 20.287 46.6466C18.976 46.0253 18.3005 45.3033 17.943 44.8071C16.3357 42.5757 17.1703 39.3471 19.9957 36.6385C22.9731 39.1775 23.9941 42.3519 22.5199 44.6734Z" fill="#D86B79"/>
<path d="M16.0346 47.2392C15.9916 47.7803 15.8143 48.6367 15.119 49.6873C13.8594 49.6909 13.0466 49.3693 12.5709 49.1075C10.4296 47.9281 9.76034 45.007 10.8328 41.739C14.1529 42.6383 16.226 44.8022 16.0346 47.2392Z" fill="#2F050F"/>
<path d="M15.5722 54.0932C15.8523 53.8645 16.3519 53.5549 17.2118 53.3951C17.8642 53.9771 18.1309 54.5014 18.2519 54.842C18.7959 56.3753 17.7495 58.0248 15.6377 59.0262C14.352 57.0755 14.3119 55.122 15.5722 54.0932Z" fill="#2F050F"/>
<path d="M19.076 57.5434C19.3906 57.2866 19.9514 56.939 20.9169 56.7595C21.6494 57.4133 21.9485 58.0016 22.085 58.3844C22.6958 60.1056 21.5207 61.9578 19.1499 63.0816C17.7052 60.891 17.6608 58.6982 19.076 57.5434Z" fill="#2F050F"/>
<path d="M22.432 62.5123C22.6635 62.3237 23.0766 62.0669 23.7873 61.9353C24.3264 62.4166 24.5466 62.8494 24.6473 63.1309C25.0969 64.3983 24.2321 65.7606 22.4869 66.5889C21.4236 64.9767 21.3905 63.3624 22.432 62.5123Z" fill="#2F050F"/>
<path d="M26.1061 61.8663C25.8386 61.6946 25.4439 61.361 25.0765 60.6855C25.3855 59.9818 25.7514 59.6158 26.0033 59.4223C27.137 58.5504 28.8005 58.9769 30.2122 60.4701C28.9307 62.076 27.3087 62.6404 26.1061 61.8663Z" fill="#F7DAAB"/>
<path d="M23.9435 57.2184C23.6395 57.0228 23.1899 56.6435 22.7726 55.875C23.1244 55.0742 23.5403 54.659 23.8267 54.4381C25.1166 53.4466 27.0089 53.9314 28.614 55.6295C27.1567 57.4563 25.3123 58.098 23.9435 57.2184Z" fill="#F7DAAB"/>
<path d="M27.7955 12.4917C27.716 12.8126 27.5155 13.322 26.9483 13.954C26.0989 13.9751 25.5817 13.797 25.2861 13.6493C23.954 12.9836 23.7781 11.2651 24.8083 9.31445C26.9602 9.79719 28.1537 11.047 27.7955 12.4917Z" fill="#2F050F"/>
<path d="M32.934 11.1554C32.6638 11.3961 32.1642 11.736 31.2353 11.9724C30.4021 11.4995 30.0087 11.0407 29.8117 10.7367C28.925 9.3701 29.7892 7.73188 31.958 6.58484C33.7482 8.26247 34.1493 10.071 32.934 11.1554Z" fill="#D86B79"/>
<path d="M38.9085 11.0674C38.5777 11.2588 37.9958 11.4994 37.0282 11.5304C36.3569 10.833 36.1077 10.2546 36.0036 9.88656C35.537 8.23074 36.8445 6.70159 39.2751 6C40.5284 8.19837 40.3982 10.2067 38.9085 11.0674Z" fill="#F7DAAB"/>
<path d="M44.1286 13.966C43.7028 14.0005 43.0153 13.9702 42.1146 13.562C41.9584 12.5853 42.1097 11.9147 42.256 11.5129C42.9126 9.70434 45.1018 8.81979 47.7731 9.24271C47.4768 11.9302 46.0462 13.809 44.1286 13.966Z" fill="#F7DAAB"/>
<path d="M48.139 18.0277C47.7287 17.9876 47.0736 17.8356 46.2432 17.2706C46.17 16.2685 46.3678 15.626 46.5388 15.2502C47.3086 13.5613 49.4732 13.0631 51.9967 13.9547C51.502 16.5859 49.9862 18.2086 48.139 18.0277Z" fill="#F7DAAB"/>
<path d="M48.7111 22.8698C48.4388 22.6236 48.0496 22.1669 47.7491 21.3119C48.2143 20.5343 48.6872 20.1641 49.0031 19.9776C50.4246 19.1374 52.2261 19.9115 53.5667 21.8994C51.856 23.5785 49.9363 23.9768 48.7111 22.8698Z" fill="#F7DAAB"/>
<path d="M60.8782 35.3051C60.7156 35.7393 60.3483 36.4261 59.425 37.2698C58.1745 37.2747 57.4392 37.0179 57.0254 36.8089C55.1627 35.8666 55.1493 33.5247 56.9409 30.9027C60.0351 31.6184 61.6107 33.3502 60.8782 35.3051Z" fill="#D86B79"/>
<path d="M20.2195 53.1214C19.8796 52.9026 19.3764 52.4783 18.9092 51.6183C19.3026 50.7225 19.7684 50.2574 20.0893 50.0104C21.5326 48.9006 23.65 49.4432 25.4466 51.3439C23.8154 53.3882 21.7507 54.1066 20.2195 53.1214Z" fill="#F7DAAB"/>
<path d="M27.899 34.1798C28.4219 34.0637 29.2797 33.9842 30.4661 34.3353C30.8236 35.5197 30.7476 36.3782 30.6343 36.9018C30.1227 39.2578 27.5535 40.7306 24.1687 40.6638C24.085 37.2789 25.5451 34.7027 27.899 34.1798Z" fill="#2F050F"/>
<path d="M22.6663 30.7472C23.211 30.9386 24.0385 31.3516 24.9076 32.3326C24.5262 33.5866 23.9463 34.3072 23.5311 34.7083C21.6621 36.514 18.449 36.3747 15.4104 34.4071C17.3519 31.3516 20.2146 29.8858 22.6663 30.7472Z" fill="#2F050F"/>
<path d="M20.4863 25.3829C20.9718 25.8016 21.6565 26.5503 22.1329 27.8472C21.1787 28.8458 20.2526 29.2596 19.6397 29.4496C16.8826 30.3039 13.578 28.7557 11.2656 25.5848C14.6511 23.599 18.2991 23.4991 20.4863 25.3829Z" fill="#2F050F"/>
<path d="M22.1308 18.3493C22.0984 19.1093 21.8873 20.3281 20.9373 21.8987C19.1126 22.1042 17.9177 21.7862 17.214 21.4976C14.048 20.1979 12.92 16.2424 14.2964 11.5269C19.1548 12.2503 22.2757 14.9293 22.1308 18.3493Z" fill="#F7DAAB"/>
<path d="M49.0327 45.2688C48.671 49.2968 44.8879 53.0855 40.7733 54.0785C33.3823 55.8623 29.0693 47.6508 21.7775 48.7556C18.7966 49.2074 14.5554 51.3326 10.215 59.7679C10.215 58.789 10.215 57.8102 10.215 56.8313C14.3436 49.6845 18.3237 47.6037 21.4109 47.1955C29.2283 46.1625 34.1247 55.4852 40.9577 53.3438C44.4516 52.2488 47.1024 48.5727 47.3811 45.0844C47.7259 40.7707 44.4206 37.0101 41.508 35.1735C35.1521 31.1666 29.4901 35.5816 25.0814 31.5029C21.4784 28.1688 22.3539 22.5307 22.42 22.143C23.097 18.1656 26.0772 14.6042 29.9933 12.8949C31.8623 12.0772 33.946 11.6824 36.093 11.8654C41.9506 12.3636 46.8906 17.039 47.8307 23.1943L47.3712 22.9283C46.1827 17.1959 41.47 13.0173 36.093 12.6915C34.3436 12.586 32.6321 12.8942 31.0615 13.512C27.0384 15.0954 23.9407 18.7124 23.5213 22.6025C23.4678 23.0923 23.111 26.9809 25.8154 29.852C29.666 33.9413 34.6736 30.6071 41.2321 34.165C44.7232 36.0587 49.4746 40.3499 49.0327 45.2688Z" fill="#D86B79"/>
<path d="M29.4064 65.869L29.1882 65.9949C27.082 64.7282 25.7858 63.3567 24.9899 62.3378C22.9689 59.751 23.1659 58.105 20.8606 55.6385C19.6946 54.3908 18.3308 52.9321 16.6391 53.0693C15.2113 53.1847 14.1993 54.3845 12.6012 56.281C11.4683 57.6251 10.7026 58.8755 10.215 59.7678C10.215 58.7587 10.215 57.7489 10.215 56.7398C10.3754 56.4302 10.614 56.0108 10.9489 55.547C11.331 55.0185 13.5674 51.923 16.4547 51.8765C18.9733 51.8357 20.8001 54.134 21.7775 55.3634C23.743 57.8362 23.3404 59.3583 25.1729 61.9704C26.5634 63.9528 28.2474 65.1688 29.4064 65.869Z" fill="#F7DAAB"/>
<g style="mix-blend-mode:multiply">
<path d="M23.2296 69.3011L21.5344 70.28C16.4086 73.2397 10 69.5404 10 63.6201V14.7859C10 8.86564 16.4079 5.16697 21.5344 8.12604L23.2296 9.1049C19.5197 9.17527 16.149 12.1632 16.149 16.3207V62.0853C16.149 66.2421 19.5197 69.23 23.2296 69.3011Z" fill="#B4B4B4"/>
</g>
</g>
<defs>
<filter id="filter0_d_16_206" x="-9" y="-4.91541" width="96" height="96" filterUnits="userSpaceOnUse" color-interpolation-filters="sRGB">
<feFlood flood-opacity="0" result="BackgroundImageFix"/>
<feColorMatrix in="SourceAlpha" type="matrix" values="0 0 0 0 0 0 0 0 0 0 0 0 0 0 0 0 0 0 127 0" result="hardAlpha"/>
<feOffset dy="4"/>
<feGaussianBlur stdDeviation="5"/>
<feComposite in2="hardAlpha" operator="out"/>
<feColorMatrix type="matrix" values="0 0 0 0 0.968627 0 0 0 0 0.854902 0 0 0 0 0.670588 0 0 0 0.5 0"/>
<feBlend mode="normal" in2="BackgroundImageFix" result="effect1_dropShadow_16_206"/>
<feBlend mode="normal" in="SourceGraphic" in2="effect1_dropShadow_16_206" result="shape"/>
</filter>
</defs>
</svg>
