<svg width="20" height="20" viewBox="0 0 20 20" fill="none" xmlns="http://www.w3.org/2000/svg">
<path d="M4.92277 4.41583C4.88525 4.45335 4.87993 4.50431 4.89323 4.76975C4.93607 5.67583 4.93887 5.81527 4.90933 5.86889C4.87181 5.94393 4.79677 5.93861 4.64123 5.85545C4.57151 5.81793 4.49115 5.79105 4.46693 5.79651C4.35703 5.81793 4.35969 5.87155 4.50711 6.54439L4.65201 7.19861L4.66811 7.96259L4.68421 8.72657L4.78067 8.99467C4.92277 9.38877 4.97373 9.49867 5.13725 9.75067C5.31421 10.0214 5.58231 10.2948 5.82885 10.4557C5.98971 10.5603 6.00847 10.5844 6.00847 10.6594C6.00847 10.8256 6.00049 10.831 5.72973 10.831C5.26857 10.8337 4.91745 10.9517 4.64935 11.1983C4.57165 11.268 4.23649 11.6888 3.90413 12.1286C3.14267 13.1419 3.14001 13.15 3.14001 13.9382C3.14001 14.4395 3.17221 14.6245 3.30353 14.8845C3.44829 15.1713 3.79675 15.4688 4.09971 15.56L4.15865 15.5787V15.0667C4.15865 14.6378 4.16663 14.5387 4.20149 14.4769C4.34625 14.2357 4.70017 14.2839 4.77521 14.5546C4.78865 14.6082 4.80209 14.871 4.80209 15.139V15.6295H6.94409H9.08876L9.09687 15.0639L9.10486 14.4982L9.20411 14.4071C9.32746 14.2972 9.47221 14.2837 9.58477 14.3722C9.72422 14.4821 9.73486 14.5384 9.73486 15.096V15.6108L9.8743 15.5947C10.0674 15.5706 10.3649 15.423 10.5418 15.2595L10.6947 15.1201H11.9037H13.1128V14.6911C13.1128 14.2703 13.1154 14.2595 13.1798 14.1951C13.2657 14.1066 13.405 14.1066 13.5069 14.1924L13.5819 14.2567L13.5899 14.6775L13.6007 15.0984L13.7079 15.0823C13.9895 15.0368 14.311 14.7767 14.4478 14.4818C14.5068 14.3532 14.5202 14.2808 14.5283 14.0449L14.5391 13.7607L14.3568 13.7393C13.7751 13.6777 13.2041 13.3908 12.7832 12.9511C11.9763 12.1066 11.8396 10.8331 12.4481 9.83593C12.598 9.58981 13.0188 9.15021 13.2146 9.03485L13.3298 8.96779L13.3218 8.51209C13.3138 8.06969 13.311 8.05093 13.236 7.89819C13.1314 7.68637 12.9626 7.52285 12.7428 7.41827L12.5631 7.33245L11.8608 7.32447L11.1584 7.31369L11.0028 7.11531C10.8393 6.90349 10.7616 6.86863 10.7133 6.97587C10.665 7.08577 10.5981 7.06435 10.33 6.84455C10.0083 6.58177 10.0109 6.58177 9.95997 6.62475C9.92511 6.65429 9.9198 6.73199 9.93856 7.20379C9.95998 7.83113 9.95998 7.82847 9.73206 7.72123C9.61404 7.66495 9.59527 7.66229 9.55775 7.69715C9.52289 7.73467 9.53367 7.80173 9.64091 8.29229C9.76159 8.84179 9.7616 8.85257 9.7616 9.35391V9.86057L9.85806 10.134C9.96796 10.453 10.0591 10.6219 10.2361 10.8417C10.3486 10.9811 10.59 11.1875 10.7374 11.2733C10.7749 11.2947 10.7802 11.3216 10.7669 11.3993L10.7482 11.4958L10.4613 11.5065C10.1959 11.5145 10.1584 11.5226 9.9842 11.6085L9.7938 11.7023L9.60886 11.4798C9.23352 11.0186 8.93055 10.8606 8.41592 10.8578C8.15593 10.8578 8.14781 10.8525 8.11561 10.6567C8.09685 10.5522 8.09951 10.5468 8.22551 10.4691C8.40513 10.3566 8.692 10.0804 8.8474 9.86869C9.01358 9.64077 9.15036 9.36735 9.2898 8.98137L9.3997 8.67309V7.54721C9.3997 6.43729 9.3997 6.41853 9.3381 6.24703C9.17192 5.78587 8.78859 5.44819 8.33009 5.36503C8.23896 5.34893 7.82078 5.33549 7.35163 5.33549L6.53123 5.33283L6.34363 5.08881C6.07819 4.74301 6.00315 4.70815 5.92545 4.88777C5.85839 5.03785 5.80743 5.01643 5.40535 4.68141C5.20431 4.50991 5.02203 4.37047 5.00327 4.37047C4.98171 4.37033 4.94685 4.38909 4.92277 4.41583Z" fill="#70232F"/>
<path d="M14.4852 9.03764C14.3539 9.07516 14.1983 9.244 14.1635 9.39156C14.1447 9.4666 14.1313 9.7508 14.1313 10.118V10.7238H13.4878C12.7023 10.7238 12.6219 10.7452 12.4933 10.9972C12.3779 11.2251 12.4611 11.5334 12.6756 11.6674C12.7748 11.7263 12.7989 11.729 13.453 11.7371L14.1286 11.7451L14.1366 12.4073C14.1446 13.0561 14.1446 13.0722 14.2116 13.1902C14.3698 13.4691 14.7371 13.5307 14.9811 13.3162C15.1419 13.1741 15.1499 13.1312 15.1499 12.3993V11.7424H15.7934C16.3161 11.7424 16.4582 11.7345 16.5386 11.7023C16.9541 11.5253 16.9702 10.9838 16.5655 10.7748C16.4743 10.7291 16.4019 10.7238 15.8068 10.7238H15.1501V10.0671C15.1501 9.33514 15.1421 9.2923 14.9812 9.1502C14.8365 9.02154 14.6703 8.98402 14.4852 9.03764Z" fill="#70232F"/>
</svg>
