<svg width="20" height="20" viewBox="0 0 20 20" fill="none" xmlns="http://www.w3.org/2000/svg">
<path d="M16.1101 14.65C16.2176 14.65 16.3194 14.6115 16.3871 14.5449C16.4548 14.4784 16.4813 14.3911 16.459 14.3073L16.2344 13.4608C16.3623 13.3623 16.4427 13.2247 16.4427 13.0717C16.4427 12.9107 16.3527 12.7678 16.2129 12.6686V9.72916L15.3125 10.1729V12.6686C15.1727 12.7678 15.0826 12.9107 15.0826 13.0717C15.0826 13.2247 15.1631 13.3623 15.291 13.4608L15.0663 14.3073C15.0441 14.3911 15.0706 14.4784 15.1383 14.5449C15.206 14.6114 15.3078 14.65 15.4153 14.65H16.1101ZM16.4152 8.01388L10.5579 5.12639C10.3863 5.04224 10.193 5 9.99957 5C9.80619 5 9.61267 5.04221 9.44217 5.12639L3.58471 8.01388C3.42831 8.09095 3.33331 8.22708 3.33331 8.37358C3.33331 8.52011 3.42831 8.65628 3.58471 8.73347L9.44214 11.621C9.61265 11.7052 9.80616 11.7474 9.99954 11.7474C10.1929 11.7474 10.3863 11.7052 10.5578 11.621L16.4152 8.73347C16.5717 8.65631 16.6666 8.52011 16.6666 8.37358C16.6666 8.22708 16.5717 8.09091 16.4152 8.01388ZM9.99954 12.4643C9.63468 12.4643 9.27857 12.3836 8.96816 12.2307L5.55149 10.5462V13.4467C5.55149 14.3051 7.54389 15 9.99954 15C12.4561 15 14.4483 14.3051 14.4483 13.4467V10.5462L11.0318 12.2307C10.7214 12.3836 10.3644 12.4643 9.99954 12.4643Z" fill="#70232F"/>
</svg>
